<svg width="25" height="25" viewBox="0 0 25 25" fill="none" xmlns="http://www.w3.org/2000/svg">
<circle cx="12.5" cy="12.5" r="12.5" fill="#FAC949"/>
<path d="M15.7136 11.3463C16.8654 10.5063 17.6154 9.14686 17.6154 7.61538C17.6154 5.07046 15.5449 3 13 3C10.4551 3 8.38461 5.07046 8.38461 7.61538C8.38461 9.14686 9.1346 10.5063 10.2864 11.3463C7.42326 12.4419 5.38462 15.2179 5.38462 18.4615C5.38462 19.8613 6.52337 21 7.92308 21H18.0769C19.4766 21 20.6154 19.8613 20.6154 18.4615C20.6154 15.2179 18.5767 12.4419 15.7136 11.3463ZM9.76924 7.61538C9.76924 5.83395 11.2186 4.38463 13 4.38463C14.7814 4.38463 16.2307 5.83395 16.2307 7.61538C16.2307 9.39682 14.7814 10.8462 13 10.8462C11.2186 10.8462 9.76924 9.39682 9.76924 7.61538ZM18.0769 19.6154H7.92308C7.28686 19.6154 6.76925 19.0978 6.76925 18.4615C6.76925 15.0258 9.56431 12.2307 13 12.2307C16.4357 12.2307 19.2308 15.0258 19.2308 18.4615C19.2308 19.0978 18.7132 19.6154 18.0769 19.6154Z" fill="black"/>
</svg>
