<svg width="25" height="25" viewBox="0 0 25 25" fill="none" xmlns="http://www.w3.org/2000/svg">
<circle cx="12.5" cy="12.5" r="12.5" fill="#FAC949"/>
<path d="M22.7954 12.4657L18.1704 7.56568C17.8861 7.26419 17.4116 7.25044 17.1102 7.53493C16.8091 7.81919 16.7952 8.29392 17.0797 8.59518L21.2189 12.9802L17.0797 17.3658C16.7952 17.667 16.8091 18.1415 17.1102 18.426C17.2552 18.5628 17.4404 18.6305 17.6249 18.6305C17.8242 18.6305 18.0232 18.5515 18.1704 18.3957L22.7955 13.4954C23.0682 13.2062 23.0682 12.7547 22.7954 12.4657Z" fill="black"/>
<path d="M8.92057 17.3656L4.78156 12.9803L8.92057 8.595C9.20483 8.29375 9.19108 7.81898 8.88983 7.53476C8.58881 7.2505 8.11381 7.26425 7.82959 7.5655L3.20455 12.4655C2.93182 12.7545 2.93182 13.2063 3.20455 13.4953L7.82982 18.3956C7.97732 18.5518 8.17607 18.6306 8.37533 18.6306C8.55983 18.6306 8.7451 18.5626 8.88983 18.4258C9.19136 18.1416 9.20483 17.6668 8.92057 17.3656Z" fill="black"/>
<path d="M14.2134 5.00857C13.8041 4.94658 13.4211 5.22756 13.3586 5.63682L11.1586 20.0369C11.0961 20.4464 11.3773 20.8292 11.7868 20.8917C11.8254 20.8974 11.8633 20.9002 11.9011 20.9002C12.2654 20.9002 12.5849 20.6345 12.6416 20.2634L14.8416 5.86334C14.9041 5.45381 14.6229 5.07107 14.2134 5.00857Z" fill="black"/>
</svg>
