<svg width="25" height="26" viewBox="0 0 25 26" fill="none" xmlns="http://www.w3.org/2000/svg">
<circle cx="12.5" cy="12.5" r="12.5" fill="#FAC949"/>
<path d="M3.28181 11.685L6.11748 13.051V15.3248C6.11748 15.5161 6.22702 15.6904 6.39929 15.7734L11.8242 18.3866C11.8915 18.419 11.9654 18.4359 12.0402 18.4359H12.9518C13.0267 18.4359 13.1005 18.419 13.168 18.3866L18.5778 15.7806C18.6827 15.73 18.7665 15.6444 18.8148 15.5385C18.8216 15.5235 18.8281 15.5084 18.8346 15.4933C18.861 15.4315 18.8746 15.3649 18.8746 15.2977V13.0509L19.6481 12.6783V15.7618C19.4808 15.8734 19.3517 16.0405 19.2892 16.2441L18.8491 17.6782C18.7949 17.855 18.7964 18.0416 18.8535 18.2176L19.2616 19.4754C19.378 19.8341 19.7095 20.083 20.0865 20.0946C20.089 20.0946 20.0915 20.0947 20.094 20.0947L20.1064 20.0949C20.109 20.095 20.1116 20.095 20.1142 20.095C20.4848 20.095 20.8121 19.8721 20.9479 19.5272L21.4198 18.3294C21.4926 18.1447 21.5018 17.9381 21.4457 17.7477L21.0057 16.2538C20.9444 16.0456 20.8143 15.8746 20.6439 15.7612V12.1987L21.7182 11.6812C21.8905 11.5982 22 11.4239 22 11.2326V10.8361C22 10.6449 21.8905 10.4705 21.7182 10.3875L12.7121 6.04932C12.5755 5.98356 12.4165 5.98356 12.2799 6.04932L3.28181 10.3837C3.10954 10.4667 3 10.6411 3 10.8323V11.2365C3 11.4277 3.10954 11.602 3.28181 11.685ZM20.1232 18.9042L19.8104 17.9402L20.144 16.853L20.4808 17.9963L20.1232 18.9042ZM17.8788 15.012L12.8382 17.4402H12.1539L7.11328 15.012V13.5307L12.2799 16.0195C12.3482 16.0524 12.4221 16.0688 12.496 16.0688C12.57 16.0688 12.6438 16.0524 12.7121 16.0195L17.8788 13.5307L17.8788 15.012ZM12.496 7.05054L20.7664 11.0344L18.2266 12.2578C18.2042 12.2649 18.1821 12.2733 18.1606 12.2836L12.496 15.0123L6.83143 12.2836C6.80996 12.2733 6.78789 12.2649 6.76555 12.2578L4.22571 11.0344L12.496 7.05054Z" fill="black"/>
</svg>
