<svg width="25" height="25" viewBox="0 0 25 25" fill="none" xmlns="http://www.w3.org/2000/svg">
<circle cx="12.5" cy="12.5" r="12.5" fill="#FAC949"/>
<path d="M20.2727 12.7273C20.0545 12.7273 19.9091 12.8727 19.9091 13.0909V17.8182C19.9091 18.0364 19.7636 18.1818 19.5455 18.1818H6.45452C6.23633 18.1818 6.0909 18.0363 6.0909 17.8182V13.0909C6.0909 12.8727 5.94543 12.7273 5.72727 12.7273C5.50912 12.7273 5.36365 12.8727 5.36365 13.0909V17.8182C5.36365 18.4364 5.83637 18.9091 6.45455 18.9091H19.5455C20.1636 18.9091 20.6364 18.4364 20.6364 17.8182V13.0909C20.6364 12.8727 20.4909 12.7273 20.2727 12.7273Z" fill="black"/>
<path d="M19.9091 7.63637H6.09091C5.47272 7.63637 5 8.10909 5 8.72727V11.0546C5 11.5636 5.36362 12 5.83637 12.1091L11.5455 13.3818V14.5454C11.5455 14.7636 11.6909 14.9091 11.9091 14.9091H14.0909C14.3091 14.9091 14.4545 14.7636 14.4545 14.5454V13.3818L20.1636 12.1091C20.6364 12 21 11.5636 21 11.0545V8.72724C21 8.10909 20.5273 7.63637 19.9091 7.63637ZM13.7273 14.1818H12.2727V12.7273H13.7273V14.1818ZM20.2727 11.0545C20.2727 11.2363 20.1636 11.3818 19.9818 11.4181L14.4545 12.6545V12.3636C14.4545 12.1454 14.3091 12 14.0909 12H11.9091C11.6909 12 11.5455 12.1455 11.5455 12.3636V12.6545L6.01819 11.4182C5.83638 11.3818 5.72728 11.2364 5.72728 11.0546V8.72727C5.72728 8.50909 5.87275 8.36365 6.09091 8.36365H19.9091C20.1273 8.36365 20.2727 8.50912 20.2727 8.72727V11.0545V11.0545Z" fill="black"/>
<path d="M14.8182 5.09091H11.1818C10.5637 5.09091 10.0909 5.56363 10.0909 6.18182V6.54544C10.0909 6.76363 10.2364 6.90907 10.4546 6.90907C10.6727 6.90907 10.8182 6.7636 10.8182 6.54544V6.18182C10.8182 5.96363 10.9637 5.81819 11.1818 5.81819H14.8182C15.0364 5.81819 15.1818 5.96366 15.1818 6.18182V6.54544C15.1818 6.76363 15.3273 6.90907 15.5454 6.90907C15.7636 6.90907 15.9091 6.7636 15.9091 6.54544V6.18182C15.9091 5.56363 15.4364 5.09091 14.8182 5.09091Z" fill="black"/>
</svg>
